<?xml version="1.0" encoding="utf-8"?>
<!-- Generator: Adobe Illustrator 24.1.0, SVG Export Plug-In . SVG Version: 6.00 Build 0)  -->
<svg version="1.1" id="Layer_1" xmlns="http://www.w3.org/2000/svg" xmlns:xlink="http://www.w3.org/1999/xlink" x="0px" y="0px"
	 viewBox="0 0 70 70" style="enable-background:new 0 0 70 70;" xml:space="preserve">
<style type="text/css">
	.st0{fill:#BFDEDA;}
	.st1{fill:#394753;}
</style>
<path class="st0" d="M37.4,53h-5.8c-1.4,0-2.5-1.1-2.5-2.5v-5h10.8v5C39.9,51.9,38.8,53,37.4,53z"/>
<path class="st0" d="M36.7,56h-4.4c-0.7,0-1.3-0.6-1.3-1.3v-1.9h7v1.9C38,55.4,37.4,56,36.7,56z"/>
<path class="st1" d="M34.5,12c-8.4,0-15.2,6.8-15.2,15.2c0,3.5,1.1,6.7,3.3,9.4l0.1,0.1c0,0,3.8,3.5,5.4,9v4.8
	c0,1.4,0.8,2.5,1.9,3.1v1.1c0,1.3,1,2.3,2.3,2.3h4.4c1.3,0,2.3-1,2.3-2.3v-1.1c1.1-0.6,1.9-1.7,1.9-3.1v-4.8c1.6-5.4,5.3-8.9,5.4-9
	l0.1-0.1c2.2-2.7,3.3-6,3.3-9.4C49.7,18.8,42.9,12,34.5,12z M37,54.7c0,0.2-0.1,0.3-0.3,0.3h-4.4c-0.2,0-0.3-0.1-0.3-0.3V54h5V54.7z
	 M38.9,50.5c0,0.6-0.3,1.1-0.8,1.3h-7.2c-0.5-0.2-0.8-0.7-0.8-1.3v-4h8.8V50.5z M44.8,35.3c-0.5,0.5-3.9,3.9-5.7,9.2h-1.7V40
	c0-0.6-0.4-1-1-1s-1,0.4-1,1v4.5h-2V40c0-0.6-0.4-1-1-1s-1,0.4-1,1v4.5h-1.7c-1.7-5.3-5.2-8.7-5.7-9.2c-1.8-2.3-2.8-5.2-2.8-8.1
	c0-7.3,5.9-13.2,13.2-13.2c7.3,0,13.2,5.9,13.2,13.2C47.7,30.1,46.7,32.9,44.8,35.3z M34.5,17.8c-0.6,0-1,0.4-1,1s0.4,1,1,1
	c4.3,0,7.8,3.5,7.8,7.8c0,0.6,0.4,1,1,1s1-0.4,1-1C44.2,22.2,39.9,17.8,34.5,17.8z"/>
</svg>
