<svg width="36" height="15" viewBox="0 0 36 15" fill="none" xmlns="http://www.w3.org/2000/svg">
<path d="M8.12988 14H0.729492V1.15039H8.12988V3.38281H3.4541V6.2041H7.80469V8.43652H3.4541V11.75H8.12988V14Z" fill="white"/>
<path d="M22.2188 14H18.7559L13.166 4.2793H13.0869C13.1982 5.99609 13.2539 7.2207 13.2539 7.95312V14H10.8193V1.15039H14.2559L19.8369 10.7744H19.8984C19.8105 9.10449 19.7666 7.92383 19.7666 7.23242V1.15039H22.2188V14Z" fill="white"/>
<path d="M30.3398 6.78418H35.4375V13.4463C34.6113 13.7158 33.832 13.9033 33.0996 14.0088C32.373 14.1201 31.6289 14.1758 30.8672 14.1758C28.9277 14.1758 27.4453 13.6074 26.4199 12.4707C25.4004 11.3281 24.8906 9.69043 24.8906 7.55762C24.8906 5.4834 25.4824 3.86621 26.666 2.70605C27.8555 1.5459 29.502 0.96582 31.6055 0.96582C32.9238 0.96582 34.1953 1.22949 35.4199 1.75684L34.5146 3.93652C33.5771 3.46777 32.6016 3.2334 31.5879 3.2334C30.4102 3.2334 29.4668 3.62891 28.7578 4.41992C28.0488 5.21094 27.6943 6.27441 27.6943 7.61035C27.6943 9.00488 27.9785 10.0713 28.5469 10.8096C29.1211 11.542 29.9531 11.9082 31.043 11.9082C31.6113 11.9082 32.1885 11.8496 32.7744 11.7324V9.05176H30.3398V6.78418Z" fill="white"/>
</svg>
