<?xml version="1.0" encoding="utf-8"?>
<!-- Generator: Adobe Illustrator 24.1.0, SVG Export Plug-In . SVG Version: 6.00 Build 0)  -->
<svg version="1.1" id="Layer_1" xmlns="http://www.w3.org/2000/svg" xmlns:xlink="http://www.w3.org/1999/xlink" x="0px" y="0px"
	 viewBox="0 0 70 70" style="enable-background:new 0 0 70 70;" xml:space="preserve">
<style type="text/css">
	.st0{fill:#BFDEDA;}
	.st1{fill:#394753;}
	.st2{fill:#FFFFFF;}
</style>
<path class="st0" d="M59.4,23.4H10.6c-2.6,0-4.7-2.1-4.7-4.7v0c0-2.6,2.1-4.7,4.7-4.7h48.8c2.6,0,4.7,2.1,4.7,4.7v0
	C64.1,21.3,62,23.4,59.4,23.4z"/>
<path class="st1" d="M59.4,24.4H10.6c-3.2,0-5.7-2.6-5.7-5.7c0-3.2,2.6-5.7,5.7-5.7h48.8c3.2,0,5.7,2.6,5.7,5.7
	C65.1,21.9,62.6,24.4,59.4,24.4z M10.6,15c-2,0-3.7,1.7-3.7,3.7s1.7,3.7,3.7,3.7h48.8c2,0,3.7-1.7,3.7-3.7S61.5,15,59.4,15H10.6z"/>
<polyline class="st2" points="14.1,15 14.1,58.3 19.2,54 24.4,58.3 29.5,54 34.6,58.3 39.8,54 44.9,58.3 50,54 55.2,58.3 55.2,58.3 
	55.2,15 "/>
<path class="st1" d="M54.2,15v41.2L50,52.7L44.9,57l-5.1-4.3L34.6,57l-5.1-4.3L24.4,57l-5.1-4.3l-4.1,3.5V15h-2v45.5l6.1-5.2
	l5.1,4.3l5.1-4.3l5.1,4.3l5.1-4.3l5.1,4.3l5.1-4.3l6.1,5.2V15H54.2z M48.9,24H20.4v2h28.5V24z M48.9,42H20.4v2h28.5V42z M48.9,33
	H20.4v2h28.5V33z"/>
</svg>
