<?xml version="1.0" encoding="utf-8"?>
<!-- Generator: Adobe Illustrator 24.1.0, SVG Export Plug-In . SVG Version: 6.00 Build 0)  -->
<svg version="1.1" id="Layer_1" xmlns="http://www.w3.org/2000/svg" xmlns:xlink="http://www.w3.org/1999/xlink" x="0px" y="0px"
	 viewBox="0 0 70 70" style="enable-background:new 0 0 70 70;" xml:space="preserve">
<style type="text/css">
	.st0{fill:#BFDEDA;}
	.st1{fill:#394753;}
</style>
<path class="st0" d="M51.13,40.74c-0.78,2.4-2.11,4.66-4.01,6.57c-1.91,1.91-4.17,3.24-6.57,4.01L50,62.45
	c2.52-1.37,4.89-3.11,7.02-5.24s3.87-4.5,5.24-7.02L51.13,40.74z M13.88,14.08c-2.13,2.13-3.87,4.5-5.24,7.02l11.13,9.45
	c0.78-2.4,2.11-4.66,4.01-6.57c1.91-1.91,4.17-3.24,6.57-4.01L20.9,8.84C18.38,10.21,16.01,11.95,13.88,14.08z M51.13,30.55
	l11.13-9.45c-1.37-2.52-3.11-4.89-5.24-7.02c-2.13-2.13-4.5-3.87-7.02-5.24l-9.45,11.13c2.4,0.78,4.66,2.11,6.57,4.01
	C49.02,25.88,50.35,28.15,51.13,30.55z M19.77,40.74L8.64,50.19c1.37,2.52,3.11,4.89,5.24,7.02c2.13,2.13,4.5,3.87,7.02,5.24
	l9.45-11.13c-2.4-0.78-4.66-2.11-6.57-4.01C21.87,45.4,20.55,43.14,19.77,40.74z"/>
<path class="st1" d="M63.45,50.08l0.07-0.13l0,0c2.24-4.38,3.43-9.25,3.43-14.31c0-5.06-1.19-9.93-3.43-14.31l0,0l-0.07-0.12
	c-1.1-2.14-2.46-4.15-4.05-6.01c-0.09-0.11-0.18-0.21-0.28-0.32c-0.45-0.51-0.92-1.02-1.41-1.51c-0.49-0.49-1-0.95-1.51-1.41
	c-0.11-0.09-0.21-0.19-0.32-0.28c-1.85-1.59-3.86-2.94-5.99-4.04l-0.13-0.07l0,0c-4.38-2.24-9.25-3.43-14.31-3.43
	c-5.06,0-9.93,1.19-14.31,3.43l0,0l-0.13,0.07c-2.13,1.1-4.14,2.46-6,4.04c-0.11,0.09-0.22,0.19-0.33,0.28
	c-0.51,0.45-1.02,0.91-1.51,1.4s-0.95,0.99-1.4,1.51c-0.1,0.11-0.19,0.22-0.28,0.33c-1.59,1.86-2.94,3.87-4.04,6l-0.07,0.13l0,0
	c-2.24,4.38-3.43,9.25-3.43,14.31c0,5.06,1.19,9.93,3.43,14.31l0,0l0.07,0.13c1.1,2.13,2.46,4.14,4.05,6
	c0.09,0.11,0.18,0.21,0.27,0.31c0.45,0.52,0.92,1.02,1.41,1.51c0.49,0.49,1,0.95,1.51,1.41c0.11,0.09,0.21,0.18,0.32,0.28
	c1.86,1.59,3.87,2.95,6.01,4.05l0.12,0.07l0,0c4.38,2.24,9.25,3.43,14.31,3.43c5.06,0,9.93-1.19,14.31-3.43l0,0l0.13-0.07
	c2.13-1.1,4.15-2.46,6-4.05c0.11-0.09,0.21-0.18,0.32-0.27c0.52-0.45,1.02-0.92,1.51-1.41c0.49-0.49,0.95-1,1.41-1.51
	c0.09-0.11,0.18-0.21,0.28-0.32C60.99,54.23,62.35,52.22,63.45,50.08z M64.95,35.64c0,4.58-1.04,8.99-3,12.98l-9.68-8.22
	c0.87-3.11,0.88-6.41,0-9.52l9.67-8.22C63.91,26.65,64.95,31.07,64.95,35.64z M58.76,53.72c-0.31,0.4-0.64,0.8-0.98,1.19
	c-0.09,0.1-0.17,0.2-0.26,0.3c-0.39,0.44-0.79,0.88-1.21,1.29c-0.42,0.42-0.85,0.82-1.29,1.21c-0.1,0.09-0.2,0.17-0.3,0.26
	c-0.39,0.33-0.78,0.66-1.19,0.97c-0.06,0.04-0.11,0.09-0.17,0.13c-1,0.76-2.04,1.46-3.13,2.09l-7.99-9.41
	c0.02-0.01,0.04-0.02,0.06-0.03c0.49-0.21,0.96-0.43,1.43-0.68c0.16-0.09,0.32-0.19,0.48-0.28c0.32-0.19,0.64-0.37,0.96-0.58
	c0.28-0.18,0.54-0.39,0.8-0.59c0.19-0.14,0.38-0.27,0.57-0.42c0.45-0.37,0.88-0.76,1.29-1.17c0.36-0.36,0.7-0.74,1.02-1.12
	c0.09-0.11,0.18-0.22,0.27-0.33c0.26-0.32,0.5-0.65,0.74-0.99c0.05-0.08,0.11-0.16,0.17-0.24c0.29-0.43,0.55-0.87,0.79-1.32
	c0.03-0.06,0.06-0.11,0.09-0.17c0.24-0.45,0.45-0.9,0.65-1.37c0.01-0.02,0.02-0.03,0.02-0.05l9.41,7.99
	c-0.63,1.09-1.33,2.13-2.09,3.13C58.85,53.61,58.8,53.66,58.76,53.72z M45.17,47.71c-0.07,0.06-0.14,0.12-0.21,0.17
	c-0.43,0.33-0.87,0.64-1.32,0.92c-0.06,0.04-0.12,0.07-0.17,0.1c-1,0.6-2.08,1.1-3.22,1.47l-0.29,0.09
	c-2.88,0.87-5.97,0.89-8.86,0.05l-0.23-0.07c-0.11-0.03-0.22-0.08-0.33-0.12c-0.48-0.16-0.95-0.35-1.41-0.55
	c-0.12-0.05-0.24-0.11-0.36-0.17c-0.39-0.18-0.76-0.39-1.13-0.6c-0.15-0.09-0.3-0.17-0.45-0.26c-0.34-0.21-0.67-0.45-0.99-0.69
	c-0.14-0.1-0.28-0.2-0.42-0.31c-0.44-0.36-0.87-0.73-1.28-1.14c-0.41-0.41-0.78-0.84-1.14-1.28c-0.09-0.11-0.17-0.23-0.26-0.34
	c-0.27-0.36-0.53-0.72-0.76-1.1c-0.06-0.1-0.12-0.2-0.18-0.31c-0.26-0.44-0.51-0.9-0.73-1.37c-0.02-0.03-0.03-0.06-0.05-0.1
	c-0.25-0.54-0.47-1.1-0.65-1.68l-0.16-0.51c-0.39-1.38-0.61-2.81-0.61-4.28c0-1.47,0.21-2.91,0.61-4.28l0.16-0.51
	c0.19-0.58,0.41-1.13,0.65-1.67c0.02-0.03,0.03-0.07,0.05-0.1c0.22-0.47,0.46-0.92,0.72-1.36c0.06-0.1,0.12-0.21,0.19-0.31
	c0.23-0.38,0.49-0.74,0.76-1.09c0.09-0.12,0.17-0.24,0.26-0.35c0.36-0.44,0.73-0.87,1.14-1.28c0.41-0.41,0.84-0.78,1.28-1.14
	c0.11-0.09,0.23-0.17,0.35-0.26c0.36-0.27,0.72-0.53,1.09-0.76c0.1-0.06,0.21-0.12,0.31-0.19c0.44-0.26,0.9-0.51,1.37-0.73
	c0.03-0.02,0.07-0.03,0.1-0.05c0.54-0.25,1.1-0.46,1.67-0.65l0.51-0.16c1.38-0.39,2.81-0.61,4.28-0.61c1.47,0,2.91,0.21,4.28,0.61
	l0.51,0.16c0.58,0.19,1.13,0.41,1.67,0.65c0.03,0.02,0.07,0.03,0.1,0.05c0.47,0.22,0.92,0.46,1.37,0.73
	c0.1,0.06,0.21,0.12,0.31,0.18c0.38,0.24,0.74,0.49,1.1,0.76c0.11,0.09,0.23,0.17,0.35,0.26c0.44,0.36,0.87,0.73,1.28,1.14
	c0.41,0.41,0.79,0.84,1.14,1.28c0.11,0.13,0.2,0.27,0.3,0.4c0.25,0.33,0.48,0.66,0.7,1.01c0.09,0.14,0.17,0.29,0.26,0.44
	c0.22,0.37,0.42,0.75,0.61,1.14c0.06,0.12,0.11,0.23,0.16,0.35c0.21,0.46,0.39,0.94,0.55,1.42c0.04,0.11,0.08,0.22,0.11,0.32
	l0.07,0.22c0.84,2.89,0.82,5.98-0.05,8.87l-0.09,0.28c-0.37,1.14-0.86,2.21-1.47,3.22c-0.04,0.06-0.07,0.12-0.11,0.18
	c-0.28,0.45-0.59,0.89-0.92,1.32c-0.06,0.07-0.12,0.15-0.18,0.22c-0.34,0.43-0.71,0.84-1.1,1.24C46.02,47,45.6,47.36,45.17,47.71z
	 M50.23,10.11c1.08,0.63,2.13,1.33,3.12,2.08c0.06,0.05,0.13,0.1,0.19,0.15c0.4,0.31,0.78,0.63,1.17,0.96
	c0.1,0.09,0.21,0.18,0.31,0.27c0.44,0.39,0.87,0.79,1.29,1.21c0.42,0.42,0.82,0.85,1.21,1.29c0.09,0.1,0.17,0.2,0.26,0.3
	c0.34,0.39,0.66,0.78,0.98,1.19c0.04,0.06,0.09,0.11,0.13,0.17c0.76,1,1.46,2.04,2.09,3.13l-9.41,7.99
	c-0.01-0.03-0.03-0.06-0.04-0.09c-0.2-0.47-0.42-0.94-0.66-1.39c-0.09-0.18-0.2-0.34-0.3-0.52c-0.18-0.31-0.35-0.62-0.55-0.92
	c-0.19-0.29-0.4-0.56-0.61-0.83c-0.14-0.18-0.26-0.36-0.4-0.54c-0.37-0.45-0.76-0.88-1.17-1.3c-0.41-0.41-0.83-0.79-1.27-1.15
	c-1.32-1.09-2.77-1.96-4.31-2.61L50.23,10.11z M35.45,6.14c4.57,0,8.99,1.04,12.98,3l-8.21,9.67c-1.53-0.43-3.13-0.67-4.76-0.67
	s-3.23,0.24-4.76,0.67l-8.21-9.67C26.46,7.18,30.87,6.14,35.45,6.14z M12.01,17.74c0.05-0.06,0.09-0.12,0.14-0.18
	c0.31-0.4,0.64-0.79,0.97-1.18c0.09-0.1,0.18-0.21,0.27-0.31c0.39-0.44,0.79-0.87,1.21-1.29c0.42-0.42,0.85-0.82,1.29-1.21
	c0.1-0.09,0.21-0.18,0.31-0.27c0.38-0.33,0.78-0.66,1.18-0.97c0.06-0.05,0.12-0.1,0.18-0.14c0.99-0.76,2.04-1.46,3.12-2.09l7.99,9.4
	c-1.55,0.65-3,1.52-4.31,2.61c-0.44,0.36-0.86,0.74-1.27,1.15c-0.41,0.41-0.79,0.83-1.15,1.27c-1.08,1.32-1.96,2.77-2.61,4.31
	l-9.4-7.99C10.55,19.78,11.25,18.74,12.01,17.74z M5.95,35.64c0-4.58,1.04-8.99,3-12.98l9.67,8.21c-0.43,1.53-0.67,3.13-0.67,4.76
	c0,1.64,0.24,3.23,0.67,4.76l-9.67,8.21C6.99,44.63,5.95,40.22,5.95,35.64z M20.67,61.17c-1.09-0.63-2.13-1.33-3.13-2.09
	c-0.06-0.04-0.11-0.09-0.17-0.13c-0.41-0.31-0.8-0.64-1.19-0.98c-0.1-0.09-0.2-0.17-0.3-0.26c-0.44-0.39-0.87-0.79-1.29-1.21
	c-0.42-0.42-0.82-0.85-1.21-1.29c-0.09-0.1-0.17-0.2-0.26-0.3c-0.33-0.39-0.66-0.78-0.98-1.19c-0.05-0.06-0.09-0.12-0.14-0.17
	c-0.76-1-1.46-2.04-2.09-3.13l9.4-7.99c0.65,1.55,1.52,3,2.61,4.31c0.36,0.44,0.74,0.86,1.15,1.27c0.41,0.41,0.85,0.8,1.3,1.17
	c0.18,0.15,0.38,0.28,0.56,0.42c0.27,0.2,0.53,0.41,0.81,0.6c0.31,0.21,0.63,0.39,0.95,0.57c0.16,0.09,0.32,0.2,0.48,0.28
	c0.46,0.25,0.94,0.47,1.42,0.67c0.02,0.01,0.04,0.02,0.07,0.03L20.67,61.17z M35.45,65.14c-4.58,0-8.99-1.04-12.98-3l8.22-9.67
	c1.55,0.44,3.16,0.66,4.76,0.66c1.6,0,3.2-0.23,4.76-0.66l8.22,9.67C44.44,64.1,40.02,65.14,35.45,65.14z"/>
</svg>
