<?xml version="1.0" encoding="utf-8"?>
<!-- Generator: Adobe Illustrator 24.1.0, SVG Export Plug-In . SVG Version: 6.00 Build 0)  -->
<svg version="1.1" id="Layer_1" xmlns="http://www.w3.org/2000/svg" xmlns:xlink="http://www.w3.org/1999/xlink" x="0px" y="0px"
	 viewBox="0 0 70 70" style="enable-background:new 0 0 70 70;" xml:space="preserve">
<style type="text/css">
	.st0{fill:#BFDEDA;}
	.st1{fill:#394753;}
</style>
<path class="st0" d="M59.24,8.9H10.32L5.43,27.66c0,4.05,3.29,7.34,7.34,7.34s7.34-3.29,7.34-7.34c0,4.05,3.29,7.34,7.34,7.34
	s7.34-3.29,7.34-7.34c0,4.05,3.29,7.34,7.34,7.34s7.34-3.29,7.34-7.34c0,4.05,3.29,7.34,7.34,7.34s7.34-3.29,7.34-7.34L59.24,8.9z"
	/>
<path class="st1" d="M60.02,7.9H9.55L4.46,27.4l-0.03,0.25c0,2.3,0.94,4.38,2.45,5.89v29.2h55.81v-29.2
	c1.51-1.51,2.45-3.6,2.45-5.89L60.02,7.9z M35.78,9.9h10.35l0.32,2.44l2.01,15.38c-0.04,3.46-2.87,6.27-6.34,6.27
	c-3.5,0-6.34-2.84-6.34-6.34V9.9z M33.78,9.9v17.75c0,3.5-2.84,6.34-6.34,6.34c-3.47,0-6.3-2.81-6.34-6.28L23.43,9.9H33.78z
	 M6.43,27.78L11.09,9.9h10.32l-2.3,17.62l-0.01,0.13c0,3.5-2.84,6.34-6.34,6.34h0C9.31,33.99,6.5,31.22,6.43,27.78z M28.07,60.75
	H17.03V41.7h11.05V60.75z M60.69,60.75H30.07V39.7H15.03v21.05H8.87V35.02c1.16,0.62,2.49,0.97,3.89,0.97
	c3.17,0,5.93-1.78,7.34-4.39c1.41,2.61,4.17,4.39,7.34,4.39c3.17,0,5.93-1.78,7.34-4.38c1.41,2.61,4.17,4.38,7.34,4.38
	c3.17,0,5.93-1.78,7.34-4.39c1.41,2.61,4.17,4.39,7.34,4.39c1.41,0,2.73-0.35,3.89-0.97V60.75z M56.8,33.99
	c-3.5,0-6.34-2.84-6.34-6.34L48.15,9.9h10.32l4.66,17.88C63.07,31.22,60.25,33.99,56.8,33.99z M34.6,52.3h20.75V39.7H34.6V52.3z
	 M36.6,41.7h16.75v8.6H36.6V41.7z"/>
</svg>
