<?xml version="1.0" encoding="utf-8"?>
<!-- Generator: Adobe Illustrator 24.1.0, SVG Export Plug-In . SVG Version: 6.00 Build 0)  -->
<svg version="1.1" id="Layer_1" xmlns="http://www.w3.org/2000/svg" xmlns:xlink="http://www.w3.org/1999/xlink" x="0px" y="0px"
	 viewBox="0 0 70 70" style="enable-background:new 0 0 70 70;" xml:space="preserve">
<style type="text/css">
	.st0{fill:#BFDEDA;}
	.st1{fill:#394753;}
</style>
<path class="st0" d="M17.5,32.9c-7.3,0-13.3,6-13.3,13.3s6,13.3,13.3,13.3s13.3-6,13.3-13.3S24.8,32.9,17.5,32.9z M52.5,32.9
	c-7.3,0-13.3,6-13.3,13.3s6,13.3,13.3,13.3s13.3-6,13.3-13.3S59.8,32.9,52.5,32.9z"/>
<path class="st1" d="M17.5,52.9v2c4.8,0,8.7-3.9,8.7-8.7h-2C24.2,49.9,21.2,52.9,17.5,52.9z M66.2,42.2L61,18.7
	c-1.1-5.3-5.8-9.2-11.3-9.2c-6.1,0-11.1,4.8-11.5,10.8h0v1.8c-0.9-0.4-2.2-0.6-3.2-0.6c-1,0-2.3,0.2-3.2,0.6v-1.8h0
	c-0.4-6-5.4-10.8-11.5-10.8c-5.4,0-10.2,3.9-11.3,9.2L3.8,42.2c-0.4,1.3-0.6,2.6-0.6,4c0,7.9,6.4,14.3,14.3,14.3
	c6.7,0,12.3-4.6,13.9-10.9c1,0.6,2.4,0.9,3.7,0.9c1.2,0,2.6-0.2,3.6-0.8c1.6,6.2,7.2,10.8,13.9,10.8c7.9,0,14.3-6.4,14.3-14.3
	C66.8,44.8,66.6,43.5,66.2,42.2z M17.5,58.5c-6.8,0-12.3-5.5-12.3-12.3c0-0.9,0.1-1.7,0.3-2.5l0,0l0.2-1.1c1.5-5,6.2-8.7,11.8-8.7
	c6.8,0,12.3,5.5,12.3,12.3S24.3,58.5,17.5,58.5z M29.8,38.9c-2.5-4.2-7.1-7-12.3-7c-4.1,0-7.8,1.7-10.4,4.5L11,19.1
	c0.9-4.4,4.8-7.6,9.3-7.6c5.2,0,9.5,4.3,9.5,9.5V38.9z M37.8,47.8c-0.2,0.3-1.3,0.7-2.8,0.7s-2.5-0.4-2.8-0.7
	c-0.1-0.2-0.3-0.3-0.5-0.3c0-0.4,0.1-0.9,0.1-1.3c0-0.2,0-0.5,0-0.7h0V24.4c0.2-0.1,0.3-0.1,0.5-0.3c0.2-0.3,1.3-0.7,2.8-0.7
	s2.5,0.4,2.8,0.7c0.1,0.1,0.3,0.2,0.4,0.3v21.1h0c0,0.2,0,0.5,0,0.7c0,0.5,0,0.9,0.1,1.3C38.1,47.6,37.9,47.7,37.8,47.8z M40.2,21
	c0-5.2,4.3-9.5,9.5-9.5c4.5,0,8.4,3.2,9.3,7.6l3.9,17.3c-2.6-2.8-6.3-4.5-10.4-4.5c-5.2,0-9.8,2.8-12.3,7V21z M52.5,58.5
	c-6.8,0-12.3-5.5-12.3-12.3s5.5-12.3,12.3-12.3c5.5,0,10.2,3.7,11.8,8.7l0.2,1.1l0,0c0.2,0.8,0.3,1.6,0.3,2.5
	C64.8,53,59.3,58.5,52.5,58.5z M52.5,52.9v2c4.8,0,8.7-3.9,8.7-8.7h-2C59.2,49.9,56.2,52.9,52.5,52.9z"/>
</svg>
