<svg width="97" height="22" viewBox="0 0 97 22" fill="none" xmlns="http://www.w3.org/2000/svg">
<path d="M6.40527 18H3.68066V7.41797H0.191406V5.15039H9.89453V7.41797H6.40527V18Z" fill="white"/>
<path d="M11.8721 18V5.15039H14.5967V18H11.8721Z" fill="white"/>
<path d="M25.2314 18H17.8311V5.15039H25.2314V7.38281H20.5557V10.2041H24.9062V12.4365H20.5557V15.75H25.2314V18ZM24.8184 4.12207H23.3945C22.7383 3.68262 22.1201 3.19629 21.54 2.66309C20.8721 3.25488 20.2539 3.74121 19.6855 4.12207H18.2617V3.88477C18.918 3.12305 19.5479 2.30273 20.1514 1.42383H22.9199C23.2305 1.88086 23.582 2.36133 23.9746 2.86523C24.373 3.36328 24.6543 3.70312 24.8184 3.88477V4.12207ZM24.0361 2.17969C24.5342 1.64648 24.9385 1.05762 25.249 0.413086H27.3672V0.597656C26.9746 1.11914 26.3096 1.72266 25.3721 2.4082H24.0361V2.17969Z" fill="white"/>
<path d="M39.3203 18H35.8574L30.2676 8.2793H30.1885C30.2998 9.99609 30.3555 11.2207 30.3555 11.9531V18H27.9209V5.15039H31.3574L36.9385 14.7744H37C36.9121 13.1045 36.8682 11.9238 36.8682 11.2324V5.15039H39.3203V18Z" fill="white"/>
<path d="M47.4414 10.7842H52.5391V17.4463C51.7129 17.7158 50.9336 17.9033 50.2012 18.0088C49.4746 18.1201 48.7305 18.1758 47.9688 18.1758C46.0293 18.1758 44.5469 17.6074 43.5215 16.4707C42.502 15.3281 41.9922 13.6904 41.9922 11.5576C41.9922 9.4834 42.584 7.86621 43.7676 6.70605C44.957 5.5459 46.6035 4.96582 48.707 4.96582C50.0254 4.96582 51.2969 5.22949 52.5215 5.75684L51.6162 7.93652C50.6787 7.46777 49.7031 7.2334 48.6895 7.2334C47.5117 7.2334 46.5684 7.62891 45.8594 8.41992C45.1504 9.21094 44.7959 10.2744 44.7959 11.6104C44.7959 13.0049 45.0801 14.0713 45.6484 14.8096C46.2227 15.542 47.0547 15.9082 48.1445 15.9082C48.7129 15.9082 49.29 15.8496 49.876 15.7324V13.0518H47.4414V10.7842Z" fill="white"/>
<path d="M67.6123 5.15039H70.3633L65.9951 18H63.0244L58.665 5.15039H61.416L63.833 12.7969C63.9678 13.248 64.1055 13.7754 64.2461 14.3789C64.3926 14.9766 64.4834 15.3926 64.5186 15.627C64.583 15.0879 64.8027 14.1445 65.1777 12.7969L67.6123 5.15039Z" fill="white"/>
<path d="M71.9893 18V5.15039H74.7139V18H71.9893Z" fill="white"/>
<path d="M85.3486 18H77.9482V5.15039H85.3486V7.38281H80.6729V10.2041H85.0234V12.4365H80.6729V15.75H85.3486V18ZM83.6875 4.12207C82.7676 3.57715 82.082 3.06152 81.6309 2.5752C81.1738 3.0498 80.5029 3.56543 79.6182 4.12207H77.834V3.88477C78.9414 2.77734 79.6914 1.89551 80.084 1.23926H83.2217C83.4033 1.54395 83.7168 1.95996 84.1621 2.4873C84.6133 3.00879 85.0498 3.47461 85.4717 3.88477V4.12207H83.6875ZM80.1631 20.4697C80.1631 19.5908 80.6494 19.1514 81.6221 19.1514C82.5947 19.1514 83.0811 19.5908 83.0811 20.4697C83.0811 20.8857 82.958 21.208 82.7119 21.4365C82.4658 21.665 82.1025 21.7793 81.6221 21.7793C80.6494 21.7793 80.1631 21.3428 80.1631 20.4697Z" fill="white"/>
<path d="M92.9951 18H90.2705V7.41797H86.7812V5.15039H96.4844V7.41797H92.9951V18Z" fill="white"/>
</svg>
