<?xml version="1.0" encoding="utf-8"?>
<!-- Generator: Adobe Illustrator 24.1.0, SVG Export Plug-In . SVG Version: 6.00 Build 0)  -->
<svg version="1.1" id="Layer_1" xmlns="http://www.w3.org/2000/svg" xmlns:xlink="http://www.w3.org/1999/xlink" x="0px" y="0px"
	 viewBox="0 0 70 70" style="enable-background:new 0 0 70 70;" xml:space="preserve">
<style type="text/css">
	.st0{fill:#394753;}
	.st1{fill:#BFDEDA;}
</style>
<g>
	<path class="st0" d="M34.7,64.6c-10.6,0-19.2-8.6-19.2-19.2c0-10.6,8.6-19.2,19.2-19.2c10.6,0,19.2,8.6,19.2,19.2
		C53.9,56,45.3,64.6,34.7,64.6z M34.7,28.2c-9.5,0-17.2,7.7-17.2,17.2s7.7,17.2,17.2,17.2s17.2-7.7,17.2-17.2S44.2,28.2,34.7,28.2z"
		/>
</g>
<g>
	<path class="st0" d="M34.7,58c-6.9,0-12.6-5.6-12.6-12.6s5.6-12.6,12.6-12.6s12.6,5.6,12.6,12.6S41.7,58,34.7,58z M34.7,34.9
		c-5.8,0-10.6,4.7-10.6,10.6S28.9,56,34.7,56c5.8,0,10.6-4.7,10.6-10.6S40.6,34.9,34.7,34.9z"/>
</g>
<g>
	<path class="st0" d="M34.7,53.8v-2c3.5,0,6.4-2.9,6.4-6.4h2C43.1,50.1,39.4,53.8,34.7,53.8z"/>
</g>
<polygon class="st1" points="13.8,7.5 16,18.3 22.1,22.2 22.1,7.5 "/>
<polygon class="st1" points="56.2,7.5 47.9,7.5 47.9,22.2 54,18.3 "/>
<polygon class="st1" points="30.3,7.5 30.3,27.6 35,30.6 39.7,27.6 39.7,7.5 "/>
<path class="st0" d="M12.5,6.5l2.5,12.4l6,3.9v0l8.3,5.3v0l5.7,3.7l3.7-2.4l0.1-0.1l1.9-1.2v0l8.3-5.3v0l6-3.9l2.5-12.4H12.5z
	 M16.8,17.7L15,8.5h6.1v11.9L16.8,17.7z M23.1,21.7V8.5h6.3v17.2L23.1,21.7z M38.7,27L35,29.4L31.3,27V8.5h7.4V27z M46.9,21.7
	l-6.3,4V8.5h6.3V21.7z M53.2,17.7l-4.2,2.7V8.5H55L53.2,17.7z"/>
</svg>
