<?xml version="1.0" encoding="utf-8"?>
<!-- Generator: Adobe Illustrator 24.1.0, SVG Export Plug-In . SVG Version: 6.00 Build 0)  -->
<svg version="1.1" id="Layer_1" xmlns="http://www.w3.org/2000/svg" xmlns:xlink="http://www.w3.org/1999/xlink" x="0px" y="0px"
	 viewBox="0 0 70 70" style="enable-background:new 0 0 70 70;" xml:space="preserve">
<style type="text/css">
	.st0{fill:#394753;}
	.st1{fill:#BFDEDA;}
</style>
<g>
	<path class="st0" d="M48.9,22.4H21.1l-2.3-16h8l1,7H31v-7h8v7h3.1l1-7h8L48.9,22.4z M22.9,20.4h24.3l1.7-12h-4l-1,7H37v-7h-4v7
		h-6.9l-1-7h-4L22.9,20.4z"/>
</g>
<g>
	<path class="st0" d="M52.5,55.4H17.5l1.3-1.6c8-10.3,7.1-23.2,4.8-32.1l-0.3-1.2h23.6l-0.3,1.2c-2.2,9-3.2,21.8,4.8,32.1L52.5,55.4
		z M21.5,53.4h27.1c-6.9-10.2-6.3-22.2-4.3-31H25.8C27.8,31.2,28.4,43.2,21.5,53.4z"/>
</g>
<path class="st1" d="M48.3,26.4H21.7c-1.2,0-2.2-1-2.2-2.2v-0.7c0-1.2,1-2.2,2.2-2.2h26.7c1.2,0,2.2,1,2.2,2.2v0.7
	C50.5,25.4,49.5,26.4,48.3,26.4z"/>
<path class="st0" d="M48.3,27.4H21.7c-1.8,0-3.2-1.4-3.2-3.2v-0.7c0-1.8,1.4-3.2,3.2-3.2h26.7c1.8,0,3.2,1.4,3.2,3.2v0.7
	C51.5,26,50.1,27.4,48.3,27.4z M21.7,22.4c-0.6,0-1.2,0.5-1.2,1.2v0.7c0,0.6,0.5,1.2,1.2,1.2h26.7c0.6,0,1.2-0.5,1.2-1.2v-0.7
	c0-0.6-0.5-1.2-1.2-1.2H21.7z"/>
<g>
	<path class="st0" d="M55.5,63.4h-41v-10h41V63.4z M16.5,61.4h37v-6h-37V61.4z"/>
</g>
<g>
	<path class="st0" d="M49.1,46H20.9c-0.6,0-1-0.4-1-1s0.4-1,1-1h28.1c0.6,0,1,0.4,1,1S49.6,46,49.1,46z"/>
</g>
</svg>
