<?xml version="1.0" encoding="utf-8"?>
<!-- Generator: Adobe Illustrator 24.1.0, SVG Export Plug-In . SVG Version: 6.00 Build 0)  -->
<svg version="1.1" id="Layer_1" xmlns="http://www.w3.org/2000/svg" xmlns:xlink="http://www.w3.org/1999/xlink" x="0px" y="0px"
	 viewBox="0 0 70 70" style="enable-background:new 0 0 70 70;" xml:space="preserve">
<style type="text/css">
	.st0{fill:#394753;}
	.st1{fill:#BFDEDA;}
</style>
<path class="st0" d="M7,9.2v51.6h41.4V9.2H7z M46.4,58.8H9V11.2h37.4V58.8z M39.5,20.5H15.8v2h23.7V20.5z M39.5,28.4H15.8v2h23.7
	V28.4z M16.7,44.5l2.5-2.5l2.5,2.5l1.4-1.4l-2.5-2.5l2.5-2.5l-1.4-1.4l-2.5,2.5l-2.5-2.5l-1.4,1.4l2.5,2.5l-2.5,2.5L16.7,44.5z"/>
<circle class="st1" cx="47.4" cy="36.1" r="11.3"/>
<path class="st0" d="M53.1,36.8c-0.1,1.3-0.7,2.5-1.6,3.4c-1.1,1.1-2.5,1.7-4.1,1.7v2c2.1,0,4-0.8,5.5-2.3c1.2-1.2,2-2.9,2.2-4.6
	L53.1,36.8z M56.7,44.1c1.9-2.2,2.9-5,2.9-7.9c0-3.3-1.3-6.4-3.6-8.7s-5.4-3.6-8.7-3.6s-6.4,1.3-8.7,3.6s-3.6,5.4-3.6,8.7
	c0,3.3,1.3,6.4,3.6,8.7c2.4,2.4,5.5,3.6,8.7,3.6c2.8,0,5.6-1,7.9-2.9l8.1,8.1l1.4-1.4L56.7,44.1z M54.6,43.4c-4,4-10.5,4-14.5,0
	c-1.9-1.9-3-4.5-3-7.3c0-2.7,1.1-5.3,3-7.3c1.9-1.9,4.5-3,7.3-3s5.3,1.1,7.3,3c1.9,1.9,3,4.5,3,7.3C57.6,38.9,56.6,41.4,54.6,43.4z"
	/>
</svg>
