<svg width="35" height="17" viewBox="0 0 35 17" fill="none" xmlns="http://www.w3.org/2000/svg">
<path d="M2.72052 10.8087V11.8629H0L0.091703 7.5869V5.55284L0.0305677 3.41485L0.152838 3.29607L2.90393 3.34061H6.23581V0.118777L6.35808 0H8.81878L8.94105 0.118777V3.34061H12.5175L15.2533 3.31092L15.3755 3.42969L15.345 5.55284V7.52751L15.4367 11.7144H12.655V10.8087H8.94105V11.8035L9.03275 17H6.12882L6.22052 11.8035V10.8087H2.72052ZM6.23581 5.4786H2.72052V8.67074H6.23581V5.4786ZM12.655 8.67074V5.4786H8.94105V8.67074H12.655Z" fill="white"/>
<path d="M31.3318 5.12227C30.7663 7.5869 29.727 9.97729 28.0152 11.8777C29.7882 13.0952 32.096 13.793 35 14.3721L33.3799 16.5843C33.2576 16.7476 33.1812 16.8367 33.0131 16.8367C32.9519 16.8367 32.9061 16.8218 32.8144 16.807C30.0174 16.0943 27.7707 15.0402 26.0589 13.7485C24.286 15.1144 22.1004 16.1834 19.2576 16.9703C18.9214 17.0445 18.8144 16.9703 18.6463 16.7328L17.1484 14.7878C20.2052 14.0157 22.4214 13.1249 24.1026 11.9371C23.2467 11.0166 22.5589 9.93275 22.024 8.80437C21.4738 7.63144 21.107 6.39913 20.8166 5.13712H20.4497L17.6987 5.19651L17.5764 5.04804V2.96943L17.7292 2.8655L20.465 2.92489H24.6222V0.148472L24.7445 0H27.2511L27.3733 0.118777V2.91004H31.6681L34.4345 2.85066L34.5567 2.96943V5.03319L34.4345 5.15197L31.6681 5.09258H31.3318V5.12227ZM23.6441 5.12227C23.9192 6.2655 24.3013 7.37904 24.8668 8.41834C25.203 9.02707 25.6004 9.57642 26.0436 10.1109C27.2358 8.6559 27.9694 6.91878 28.3973 5.12227H23.6441V5.12227Z" fill="white"/>
</svg>
