<svg width="260" height="56" viewBox="0 0 260 56" fill="none" xmlns="http://www.w3.org/2000/svg">
<path fill-rule="evenodd" clip-rule="evenodd" d="M20.3121 33.8725H47.605V38.5788H14.9162V40.5948H42.527V45.301H9.83815V47.318H36.815V52.0232H0V47.318H5.39499V40.5948H10.473V33.8725H15.869V27.1503H43.1618V25.1334H10.473V20.4281H38.0838V18.4111H5.39499V13.7049H32.6888V11.6889H0V6.98267H37.132V13.7049H42.527V20.4281H47.605V27.1503H53V31.8556H20.3121V33.8725Z" fill="#1FA496"/>
<path d="M77.3604 14.1406C80.7783 14.1406 83.4717 15.0225 85.4404 16.7861C87.4229 18.5361 88.4141 20.833 88.4141 23.6768C88.4141 26.5342 87.4229 28.8311 85.4404 30.5674C83.4717 32.3037 80.7783 33.1719 77.3604 33.1719H72.3154V39.7959L75.5146 40.4111V44H63.1484V40.4111L66.3271 39.7959V18.3652L63.1484 17.75V14.1406H66.3271H77.3604ZM72.3154 28.5576H77.3604C79.0283 28.5576 80.2861 28.1064 81.1338 27.2041C81.9951 26.2881 82.4258 25.126 82.4258 23.7178C82.4258 22.2822 81.9951 21.0996 81.1338 20.1699C80.2861 19.2266 79.0283 18.7549 77.3604 18.7549H72.3154V28.5576ZM90.9365 40.4111L93.8076 39.7959V26.0352L90.6289 25.4199V21.8105H99.3857L99.6523 25.0508C100.172 23.9023 100.842 23.0068 101.662 22.3643C102.482 21.7217 103.433 21.4004 104.513 21.4004C104.827 21.4004 105.155 21.4277 105.497 21.4824C105.853 21.5234 106.146 21.5781 106.379 21.6465L105.743 27.1016L103.282 27.04C102.407 27.04 101.683 27.2109 101.108 27.5527C100.534 27.8945 100.097 28.3799 99.7959 29.0088V39.7959L102.667 40.4111V44H90.9365V40.4111ZM118.376 44.4307C115.177 44.4307 112.62 43.4053 110.706 41.3545C108.792 39.3037 107.835 36.6992 107.835 33.541V32.7207C107.835 29.4258 108.737 26.7119 110.542 24.5791C112.36 22.4463 114.794 21.3867 117.843 21.4004C120.837 21.4004 123.161 22.3027 124.815 24.1074C126.47 25.9121 127.297 28.3525 127.297 31.4287V34.6895H114.049L114.008 34.8125C114.117 36.2754 114.603 37.4785 115.464 38.4219C116.339 39.3652 117.521 39.8369 119.012 39.8369C120.338 39.8369 121.438 39.707 122.313 39.4473C123.188 39.1738 124.146 38.75 125.185 38.1758L126.805 41.8672C125.889 42.5918 124.699 43.2002 123.236 43.6924C121.787 44.1846 120.167 44.4307 118.376 44.4307ZM117.843 26.0146C116.735 26.0146 115.86 26.4385 115.218 27.2861C114.575 28.1338 114.179 29.248 114.028 30.6289L114.09 30.7314H121.432V30.1982C121.432 28.9268 121.131 27.915 120.529 27.1631C119.941 26.3975 119.046 26.0146 117.843 26.0146ZM140.565 39.8369C141.632 39.8369 142.486 39.5293 143.129 38.9141C143.771 38.2852 144.093 37.4512 144.093 36.4121H149.507L149.568 36.5352C149.623 38.7773 148.782 40.6572 147.046 42.1748C145.31 43.6787 143.149 44.4307 140.565 44.4307C137.257 44.4307 134.707 43.3848 132.916 41.293C131.125 39.2012 130.229 36.5146 130.229 33.2334V32.6182C130.229 29.3506 131.146 26.6641 132.978 24.5586C134.823 22.4531 137.448 21.4004 140.853 21.4004C142.644 21.4004 144.25 21.667 145.672 22.2002C147.094 22.7334 148.276 23.4854 149.22 24.4561L149.302 30.3828H144.441L143.457 26.917C143.156 26.6572 142.787 26.4453 142.35 26.2812C141.912 26.1035 141.413 26.0146 140.853 26.0146C139.157 26.0146 137.961 26.6299 137.264 27.8604C136.566 29.0908 136.218 30.6768 136.218 32.6182V33.2334C136.218 35.2158 136.539 36.8154 137.182 38.0322C137.824 39.2354 138.952 39.8369 140.565 39.8369ZM152.111 40.4111L155.003 39.7959V26.0352L151.804 25.4199V21.8105H160.991V39.7959L163.862 40.4111V44H152.111V40.4111ZM160.991 16.499H155.003V12.0078H160.991V16.499ZM183.939 29.4395H179.92L179.284 26.6709C178.874 26.3428 178.354 26.0693 177.726 25.8506C177.11 25.6318 176.427 25.5225 175.675 25.5225C174.622 25.5225 173.788 25.7617 173.173 26.2402C172.558 26.7051 172.25 27.293 172.25 28.0039C172.25 28.6738 172.544 29.2344 173.132 29.6855C173.72 30.123 174.896 30.5127 176.659 30.8545C179.407 31.4014 181.444 32.208 182.771 33.2744C184.097 34.3271 184.76 35.7832 184.76 37.6426C184.76 39.6387 183.898 41.2725 182.176 42.5439C180.467 43.8018 178.211 44.4307 175.408 44.4307C173.699 44.4307 172.127 44.1846 170.691 43.6924C169.27 43.1865 168.005 42.4688 166.897 41.5391L166.836 36.5557H171.02L171.84 39.4473C172.195 39.748 172.681 39.9736 173.296 40.124C173.911 40.2607 174.554 40.3291 175.224 40.3291C176.44 40.3291 177.363 40.1104 177.992 39.6729C178.635 39.2354 178.956 38.6406 178.956 37.8887C178.956 37.2324 178.635 36.665 177.992 36.1865C177.35 35.708 176.167 35.2842 174.444 34.915C171.833 34.3818 169.857 33.5957 168.518 32.5566C167.191 31.5039 166.528 30.0752 166.528 28.2705C166.528 26.4111 167.294 24.8115 168.825 23.4717C170.356 22.1182 172.537 21.4414 175.367 21.4414C177.09 21.4414 178.717 21.6738 180.248 22.1387C181.793 22.6035 183.003 23.1982 183.878 23.9229L183.939 29.4395ZM187.262 40.4111L190.153 39.7959V26.0352L186.954 25.4199V21.8105H196.142V39.7959L199.013 40.4111V44H187.262V40.4111ZM196.142 16.499H190.153V12.0078H196.142V16.499ZM200.981 32.7002C200.981 29.3916 201.904 26.6846 203.75 24.5791C205.609 22.46 208.173 21.4004 211.44 21.4004C214.722 21.4004 217.285 22.4531 219.131 24.5586C220.99 26.6641 221.92 29.3779 221.92 32.7002V33.1309C221.92 36.4668 220.99 39.1875 219.131 41.293C217.285 43.3848 214.735 44.4307 211.481 44.4307C208.187 44.4307 205.609 43.3848 203.75 41.293C201.904 39.1875 200.981 36.4668 200.981 33.1309V32.7002ZM206.97 33.1309C206.97 35.1543 207.325 36.7812 208.036 38.0117C208.747 39.2285 209.896 39.8369 211.481 39.8369C213.026 39.8369 214.154 39.2217 214.865 37.9912C215.59 36.7607 215.952 35.1406 215.952 33.1309V32.7002C215.952 30.7314 215.59 29.125 214.865 27.8809C214.141 26.6367 212.999 26.0146 211.44 26.0146C209.882 26.0146 208.747 26.6367 208.036 27.8809C207.325 29.125 206.97 30.7314 206.97 32.7002V33.1309ZM224.196 40.4111L227.067 39.7959V26.0352L223.889 25.4199V21.8105H232.646L232.912 24.9893C233.65 23.8545 234.56 22.9727 235.64 22.3438C236.72 21.7148 237.93 21.4004 239.27 21.4004C241.512 21.4004 243.262 22.1045 244.52 23.5127C245.777 24.9209 246.406 27.1289 246.406 30.1367V39.7959L249.277 40.4111V44H237.834V40.4111L240.397 39.7959V30.1572C240.397 28.667 240.097 27.6143 239.495 26.999C238.894 26.3701 237.984 26.0557 236.768 26.0557C235.975 26.0557 235.264 26.2197 234.635 26.5479C234.006 26.8623 233.479 27.3135 233.056 27.9014V39.7959L235.476 40.4111V44H224.196V40.4111Z" fill="#1FA496"/>
</svg>
