<svg width="313" height="91" viewBox="0 0 313 91" fill="none" xmlns="http://www.w3.org/2000/svg">
<g clip-path="url(#clip0)">
<path d="M55.3983 48.1989C54.9592 49.1437 54.7766 49.7628 54.8105 50.0136C54.8407 50.3891 54.7536 50.5531 54.5468 50.5887C54.5032 50.6707 54.4609 50.7111 54.3762 50.7919C54.2927 50.8311 54.2492 50.9131 54.248 50.9547C54.2468 50.9963 54.2855 51.0807 54.4053 51.2091C54.4029 51.2922 54.3992 51.417 54.392 51.6666C54.3848 51.9162 54.3376 52.1229 54.207 52.3689C54.1622 52.4925 54.1163 52.6577 54.1102 52.8657C54.0002 53.82 54.4637 54.8741 55.4195 55.9842C55.8212 56.3289 56.1031 56.5452 56.3462 56.6771C56.5483 56.8079 56.8774 56.8174 57.2488 56.7866C57.9928 56.6833 58.6146 56.5348 59.24 56.2615C59.8243 55.9871 60.4945 55.5902 61.2518 55.0294C62.3853 54.2713 63.3519 53.5916 64.0293 52.9452C64.7479 52.2999 65.5148 51.4063 66.4136 50.2252C68.3853 47.5348 69.5259 45.1118 69.7133 42.9108C69.8341 41.5822 69.7784 40.6647 69.4674 40.0313C69.1964 39.4406 68.6338 38.9664 67.7784 38.6502C67.499 38.3507 67.2981 38.1783 67.136 38.0904C66.9739 38.0024 66.8106 37.956 66.5638 37.9489C66.3158 37.9833 65.9008 38.0962 65.1955 38.2839C64.4467 38.5536 63.739 38.8244 63.0688 39.2213C62.3986 39.6181 61.6413 40.179 60.7957 40.9454C60.2042 41.4695 59.4832 42.1979 58.7139 43.1747C57.9034 44.1503 57.3046 44.9239 56.874 45.5774C56.3163 46.3522 55.8373 47.2542 55.3983 48.1989ZM57.6378 50.4702C58.5982 48.5831 59.5078 47.0276 60.4102 45.7216C61.2715 44.4145 62.2501 43.3188 63.2638 42.4324C64.1082 41.7076 64.9018 41.3143 65.6446 41.2526C65.9749 41.2205 66.3027 41.2717 66.5858 41.4464C66.829 41.5783 66.8956 42.1214 66.8255 43.1185C66.7615 43.9076 66.5764 44.6099 66.395 45.1875C65.864 46.4626 65.2979 47.5285 64.7379 48.3865C64.1778 49.2445 63.452 50.1393 62.6004 51.1137C60.7326 53.0577 59.2628 54.0558 58.1898 54.1496C57.7772 54.1793 57.4518 54.0449 57.2122 53.7882C57.015 53.4911 56.9024 53.1132 56.9581 52.6152C56.9786 51.9081 57.2047 51.207 57.6378 50.4702ZM251.781 46.3176C252.282 46.0823 252.584 45.5915 252.648 44.8024C252.704 44.3045 252.677 43.8042 252.61 43.3026C252.507 42.592 252.534 41.6353 252.649 40.5146C252.829 38.5633 253.254 36.7023 253.84 34.9292C254.163 33.7313 254.571 32.4527 255.147 31.054C255.68 29.6957 256.073 28.9161 256.282 28.7973C256.411 28.6345 256.783 28.562 257.278 28.5348C257.732 28.5063 258.103 28.4754 258.391 28.4838C260.581 28.2142 262.153 27.9268 263.109 27.6215C264.024 27.315 264.529 26.9134 264.585 26.4154C264.591 26.2074 264.597 25.9995 264.521 25.7891C264.41 25.3696 264.212 25.0725 263.929 24.8977C263.646 24.723 263.236 24.6695 262.658 24.736C262.245 24.7656 261.79 24.8357 261.21 24.9854C259.717 25.3584 258.765 25.5389 258.311 25.5674L257.529 25.5447L258.059 24.3112C259.026 22.2161 260.073 20.1651 261.159 18.1984C261.807 17.1764 262.705 15.9952 263.815 14.6536C264.924 13.312 265.601 12.6656 265.725 12.6692L265.731 12.4612C265.738 12.2116 266.077 11.8884 266.706 11.4904C267.335 11.0923 267.793 10.8975 268.081 10.9058C268.412 10.8738 268.528 11.1269 268.512 11.6676C268.415 12.1644 268.184 13.0319 267.779 14.2274C267.729 14.5174 267.638 14.8477 267.462 15.2173C267.287 15.5869 267.199 15.7925 267.196 15.8757C267.15 16.0409 267.062 16.2464 266.972 16.4936C266.883 16.7408 266.796 16.9048 266.791 17.0712C266.663 17.234 266.66 17.3172 266.7 17.3599C266.74 17.4027 266.862 17.4479 267.027 17.4527C267.275 17.4182 267.608 17.303 268.026 17.0654C269.312 15.3126 270.136 13.8795 270.497 12.766C270.76 12.2324 270.94 11.6964 270.997 11.1569C271.107 10.2026 270.842 9.40397 270.284 8.76336C269.725 8.16433 268.951 7.8921 268.002 7.94786C267.508 7.97514 267.009 8.1272 266.508 8.36245C265.674 8.75454 264.748 9.4354 263.65 10.4026C262.592 11.3711 261.659 12.3431 260.929 13.3627C260.668 13.8547 260.365 14.3454 260.064 14.7946C259.762 15.2854 259.59 15.5302 259.588 15.6134C259.538 15.9034 259.492 16.0685 259.328 16.0638L259.245 16.0614C258.95 16.3026 258.036 18.0245 256.463 21.1427C254.891 24.261 253.791 26.6852 253.165 28.4155C251.335 33.3163 250.319 37.1167 250.036 39.7728C249.978 40.3539 249.966 40.7699 249.959 41.0194C249.788 42.638 249.915 43.9322 250.257 44.9412C250.597 45.9918 251.119 46.4233 251.781 46.3176ZM199.794 43.228C199.834 43.2708 199.995 43.4003 200.195 43.5727C200.396 43.745 200.599 43.8342 200.765 43.7973C200.847 43.7997 200.972 43.7617 201.18 43.6845C201.345 43.6893 201.472 43.5681 201.599 43.4469C201.727 43.2841 201.9 42.9977 202.159 42.5889C202.418 42.1801 202.803 41.6501 203.314 41.0821C204.582 39.9532 205.847 38.9076 207.191 37.9891C208.535 37.0706 210.174 35.9109 212.106 34.5931C212.485 34.3127 212.818 34.1975 213.107 34.1642C213.519 34.1346 213.714 34.5149 213.692 35.2636C213.686 35.4715 213.635 35.8031 213.622 36.2606C213.609 36.7182 213.518 37.007 213.349 37.1686C213.219 37.3729 213.126 37.7449 213.112 38.244C212.998 39.3231 213.049 40.4069 213.225 41.4528C213.453 42.0838 213.769 42.5509 214.173 42.8124C214.577 43.0739 215.11 43.1726 215.77 43.1085C216.394 42.8768 216.691 42.594 216.744 42.1793C216.795 41.8477 216.64 41.5102 216.36 41.2107C216.08 40.9528 215.845 40.5297 215.697 39.9426C215.548 39.3971 215.598 39.1071 215.887 39.0739L215.894 38.8243C215.812 38.8219 215.73 38.8195 215.691 38.7351C215.652 38.6508 215.654 38.6092 215.654 38.6092C215.779 38.5296 215.911 38.242 216.049 37.7464C216.187 37.2509 216.285 36.7125 216.344 36.0898C216.453 35.1771 216.435 34.3856 216.331 33.7165C216.294 33.549 216.261 33.2982 216.312 32.9251C216.285 32.4663 215.928 31.9981 215.285 31.4382C214.684 30.8796 214.156 30.6146 213.785 30.6454C213.578 30.681 213.077 30.9163 212.241 31.35C211.784 31.5032 210.906 31.9773 209.686 32.8578C208.467 33.7383 207.71 34.2991 207.412 34.6235L204.469 36.7445C204.474 36.5781 204.607 36.249 204.826 35.7974C205.045 35.3458 205.219 35.0178 205.35 34.7718C206.6 32.8099 207.301 31.3732 207.367 30.5009C207.429 29.795 207.242 29.1235 206.848 28.5293C206.491 28.061 206.087 27.7995 205.674 27.8292C205.468 27.8648 205.259 27.942 205.007 28.1428C204.924 28.1405 204.8 28.1785 204.714 28.3009C204.588 28.3805 204.543 28.5041 204.54 28.6289L204.537 28.712C204.39 29.5404 204.206 30.2011 203.983 30.7774C203.762 31.3122 203.371 32.0086 202.811 32.8665C201.892 34.7548 201.322 35.9456 201.184 36.4411C201.013 36.6859 200.797 37.0127 200.537 37.4631C200.318 37.9147 200.148 38.1179 200.024 38.1143C199.851 38.4007 199.628 39.0186 199.311 40.0085C198.994 40.9984 198.852 41.6188 198.803 41.9087C198.84 42.0347 198.958 42.2463 199.237 42.5458C199.515 42.8869 199.674 43.0996 199.794 43.228ZM173.637 50.8369C173.425 51.0805 173.212 51.3241 173.083 51.4869C172.913 51.6901 172.866 51.8969 172.82 52.0621C172.936 52.3152 173.013 52.484 173.054 52.4852C173.136 52.5292 173.341 52.5351 173.671 52.5031C174.002 52.471 174.291 52.4378 174.581 52.363C174.872 52.2881 175.08 52.2109 175.164 52.1301C175.503 51.8069 175.714 51.6465 175.879 51.6096C176.003 51.6132 176.468 51.1688 177.194 50.274C177.961 49.3804 178.391 48.7684 178.565 48.4404C179.264 47.0453 179.624 45.9734 179.729 45.1855C179.737 44.9359 179.746 44.6032 179.718 44.1445C179.68 42.6447 179.453 41.9304 179.041 41.9601C178.876 41.9553 178.667 42.0741 178.454 42.3177C178.285 42.4793 178.148 42.9333 178.088 43.5976C177.721 44.8775 177.363 45.8662 177.052 46.6482C176.792 47.0985 176.279 47.7497 175.555 48.6029C174.911 49.5001 174.273 50.2309 173.637 50.8369ZM265.9 30.7414C265.02 32.714 264.473 34.5299 264.303 36.1485C264.132 37.7671 264.465 39.0672 265.3 40.0906C266.094 41.1127 267.233 41.562 268.637 41.4362C269.297 41.3721 270.003 41.1844 270.753 40.8731C271.503 40.5618 271.965 40.2422 272.138 39.9558L272.55 39.9261C272.839 39.8929 273.174 39.6945 273.476 39.2453L273.435 39.2441C273.519 39.1633 273.645 39.0837 273.854 38.9649C274.064 38.846 274.188 38.808 274.231 38.7676C274.479 38.7332 274.942 38.372 275.496 37.722C276.091 37.0732 276.433 36.6252 276.524 36.3364C276.576 35.9632 276.379 35.6661 276.014 35.489C275.649 35.2703 275.32 35.2607 274.986 35.4176C274.901 35.54 274.858 35.5804 274.775 35.6196C274.691 35.6588 274.649 35.6992 274.567 35.6968C274.482 35.7776 274.273 35.8964 273.979 36.0961C273.685 36.2957 273.35 36.4941 272.931 36.7317L272.972 36.7329L272.804 36.8529C272.425 37.1334 272.004 37.4542 271.626 37.7346C271.206 38.0138 270.787 38.2515 270.246 38.4855C269.953 38.6436 269.455 38.754 268.796 38.7765C267.93 38.8347 267.358 38.6932 267.162 38.3545C266.888 37.847 266.785 37.1363 266.893 36.2652C267.013 34.9782 267.511 33.4107 268.388 31.5628L268.564 31.1517L268.883 31.5356C269.157 32.0014 269.6 32.3473 270.17 32.572C270.74 32.7967 271.397 32.8573 272.098 32.7944C272.882 32.7339 273.548 32.5034 274.134 32.1458C275.224 31.4697 276.112 30.6629 276.838 29.7681C277.564 28.8733 278.172 27.7669 278.703 26.4918C278.929 25.7907 279.065 25.3783 279.071 25.1703C279.078 24.9208 279.09 24.5048 279.066 23.9213C278.921 23.251 278.688 22.7448 278.451 22.4048C278.172 22.1053 277.809 21.845 277.238 21.6619C276.506 21.3493 275.81 21.2043 275.191 21.2696C274.366 21.3289 273.618 21.557 272.906 21.9942C271.693 22.6251 270.467 23.7552 269.185 25.3832C267.864 26.9268 266.782 28.7271 265.9 30.7414ZM270.434 27.709C270.906 27.0567 271.671 26.2462 272.602 25.3574C273.575 24.4698 274.29 23.9493 274.705 23.8365C275.12 23.7236 275.41 23.6488 275.576 23.612C275.74 23.6167 275.905 23.6215 276.108 23.7107C276.308 23.9246 276.378 24.3429 276.321 24.8824C276.207 25.9615 275.722 27.0714 274.825 28.211C273.884 29.4326 272.918 30.0707 271.929 30.1252C271.557 30.1561 271.273 30.023 271.076 29.7258C270.879 29.4287 270.807 29.052 270.862 28.5956C270.823 28.5113 270.7 28.5077 270.451 28.5421C270.204 28.5766 269.954 28.6526 269.663 28.769L270.434 27.709ZM280.857 28.8855C281.097 29.1422 281.257 29.2718 281.296 29.3562C281.497 29.5285 281.616 29.6985 281.693 29.8672C281.729 30.0348 281.764 30.244 281.714 30.5755L281.455 32.3997C281.266 33.2268 281.163 33.9315 281.105 34.5127C280.987 35.7581 281.083 36.7184 281.476 37.3542C281.827 38.0305 282.513 38.5083 283.531 38.8708C284.307 39.1015 285.045 39.2061 285.664 39.1408C286.696 39.0459 287.735 38.7014 288.783 38.0657C289.329 37.7068 289.92 37.1828 290.639 36.5376C291.357 35.8923 291.783 35.4051 292 35.0368C292.393 34.2572 292.613 33.764 292.621 33.4729C292.629 33.2233 292.512 32.9702 292.272 32.755C291.944 32.7039 291.738 32.6979 291.574 32.6932C291.079 32.7204 290.744 32.9189 290.53 33.2041C290.277 33.4049 289.853 33.8089 289.301 34.4173C288.664 35.0649 288.156 35.5497 287.776 35.8717C287.438 36.195 287.061 36.3922 286.686 36.5478C286.519 36.6263 286.271 36.6607 285.982 36.6939C285.652 36.726 285.365 36.676 285.081 36.5429C284.797 36.4098 284.555 36.2362 284.395 36.0651C284.236 35.8524 284.117 35.724 284.076 35.7228C283.962 35.3865 283.892 34.9681 283.95 34.387C284.003 33.9723 284.052 33.6823 284.101 33.4339C284.449 31.3626 284.846 30.4582 285.211 30.6353C285.413 30.7661 285.948 30.7816 286.732 30.7211C287.928 30.6309 288.964 30.4111 289.92 30.1058C290.712 29.7541 291.594 29.1553 292.565 28.3092C293.537 27.4632 294.133 26.7728 294.312 26.2784C294.705 25.4988 294.933 24.7561 295.035 24.0514C295.147 23.0555 294.879 22.3401 294.315 21.9074C293.917 21.438 293.474 21.0921 293.07 20.8306C292.665 20.6107 292.133 20.512 291.556 20.5369C291.143 20.5666 290.687 20.6782 290.147 20.8291C289.608 20.98 289.233 21.1356 288.981 21.2948C288.352 21.6929 287.551 22.3357 286.579 23.2233C285.606 24.111 284.84 24.963 284.324 25.739C283.976 26.3949 283.633 26.8429 283.297 27.083C282.961 27.323 282.755 27.317 282.639 27.0639C282.645 26.8559 282.442 26.7667 281.988 26.7952C281.865 26.7916 281.7 26.7869 281.533 26.8653C281.366 26.9437 281.241 26.9817 281.118 26.9781C281.036 26.9758 280.909 27.097 280.821 27.3025C280.732 27.5081 280.644 27.7137 280.637 27.9633L280.671 28.214C280.54 28.46 280.616 28.6704 280.857 28.8855ZM286.507 27.1344C287.019 26.4832 287.657 25.794 288.336 25.106C289.055 24.4192 289.561 24.0175 289.894 23.9023C290.442 23.4603 290.943 23.225 291.396 23.1965C291.685 23.1633 291.93 23.2536 292.17 23.4688C292.33 23.6399 292.402 24.0166 292.346 24.5146C292.338 24.8057 292.248 25.0529 292.116 25.3405C291.473 26.2377 290.919 26.8877 290.495 27.2917C290.031 27.6945 289.53 27.9298 288.867 28.0771C288.245 28.2256 287.748 28.336 287.415 28.4513C287.167 28.4857 286.838 28.4762 286.427 28.4642C286.057 28.4535 285.894 28.3655 285.938 28.2835C285.818 28.1552 285.994 27.7856 286.507 27.1344ZM222.87 43.8556C223.073 43.9863 223.402 43.9959 223.773 43.965C224.517 43.8617 225.139 43.7132 225.764 43.44C226.349 43.1655 227.019 42.7686 227.776 42.2078C228.91 41.4497 229.835 40.7689 230.554 40.1236C231.272 39.4784 232.039 38.5848 232.938 37.4036C234.91 34.7133 236.05 32.2902 236.238 30.0893C236.358 28.7607 236.303 27.8432 235.992 27.2097C235.721 26.6191 235.158 26.1448 234.303 25.8286C234.023 25.5291 233.822 25.3568 233.66 25.2688C233.498 25.1808 233.294 25.1333 233.047 25.1261C232.799 25.1606 232.384 25.2734 231.679 25.4611C230.89 25.688 230.181 26.0005 229.553 26.3569C228.883 26.7538 228.126 27.3147 227.28 28.0811C226.689 28.6051 225.968 29.3335 225.198 30.3103C224.388 31.2859 223.789 32.0595 223.358 32.7131C222.799 33.5295 222.281 34.3886 221.881 35.3762C221.442 36.3209 221.26 36.9401 221.294 37.1908C221.324 37.5664 221.237 37.7303 221.03 37.766C220.986 37.848 220.944 37.8884 220.859 37.9692C220.776 38.0084 220.773 38.0916 220.731 38.132C220.73 38.1736 220.769 38.2579 220.888 38.3863C220.886 38.4695 220.882 38.5943 220.875 38.8438C220.868 39.0934 220.821 39.3002 220.69 39.5462C220.645 39.6698 220.599 39.835 220.593 40.0429C220.483 40.9972 220.947 42.0514 221.903 43.1615C222.345 43.5073 222.627 43.7237 222.87 43.8556ZM224.08 37.6463C225.04 35.7592 225.95 34.2036 226.852 32.8977C227.713 31.5905 228.692 30.4949 229.706 29.6085C230.55 28.8836 231.344 28.4903 232.087 28.4286C232.417 28.3966 232.745 28.4477 233.028 28.6224C233.271 28.7544 233.338 29.2975 233.267 30.2946C233.203 31.0837 233.018 31.786 232.796 32.3623C232.265 33.6375 231.699 34.7034 231.139 35.5614C230.579 36.4193 229.853 37.3141 229.001 38.2886C227.133 40.2326 225.664 41.2307 224.591 41.3245C224.178 41.3541 223.853 41.2198 223.613 40.9631C223.416 40.666 223.303 40.288 223.359 39.7901C223.462 39.0854 223.688 38.3842 224.08 37.6463ZM24.9334 63.8422C25.3871 63.8138 25.9435 63.0806 26.5592 61.7247L27.1361 60.2844C28.3384 57.1554 29.8383 53.7021 31.5945 49.9231C32.0021 48.6444 32.5731 47.4121 33.2686 46.1418L34.8471 42.8156C35.9841 40.5173 36.9022 38.6706 37.559 37.3159C38.1782 35.8352 38.6621 34.7669 39.0092 34.1525C39.3153 33.5369 39.5717 33.2113 39.6951 33.2149C39.8185 33.2185 39.8935 33.4704 39.8791 33.9696C39.8646 34.4687 39.8368 35.4254 39.716 36.754L39.1622 40.2348C38.8272 41.8486 38.6205 43.2996 38.5032 44.5035C38.2784 46.5784 38.3898 48.4134 38.7989 49.9239C39.0423 52.8866 39.311 54.9759 39.5228 56.1893C39.7359 57.3611 40.2368 58.5412 41.0281 59.6465C41.7396 60.6663 42.5078 61.1465 43.2918 61.0859C44.4471 60.9946 45.5951 59.7373 46.7756 57.3571C49.3521 52.2698 51.6127 46.7154 53.5575 40.6939C53.6797 40.7391 53.8551 40.3695 54.1224 39.6695C54.3897 38.9696 54.6207 38.1021 54.8553 37.1098C55.1335 36.0355 55.4528 34.9624 55.858 33.7669C56.5353 31.7051 56.8594 30.4656 56.9114 30.0924C58.3603 25.5552 59.0944 22.9539 59.0315 22.286C58.9165 21.9912 58.7181 21.7357 58.3527 21.5586C57.9873 21.3815 57.6196 21.2876 57.207 21.3172C56.7945 21.3469 56.5441 21.4645 56.4546 21.7117C55.9453 22.2381 55.6356 22.9785 55.5668 23.9339C55.5148 24.3071 55.4205 24.7206 55.2427 25.1734C55.0649 25.6262 54.8931 25.871 54.7697 25.8674C54.7624 26.117 54.7576 26.2833 54.7528 26.4497C54.7068 26.6149 54.702 26.7813 54.6972 26.9476C54.6936 27.0724 54.4226 27.8972 53.9256 29.423C53.3474 30.9049 52.8515 32.3892 52.358 33.7903C52.1162 35.0321 51.7921 36.2716 51.3845 37.5503C50.9769 38.829 50.6588 39.8605 50.3927 40.5188C48.4079 46.4975 46.8452 50.6984 45.6623 53.1619C44.5204 55.6265 43.7427 56.8945 43.3301 56.9241C43.0821 56.9586 42.7784 56.0755 42.5 54.319C42.2216 52.5625 42.023 50.8916 41.9019 49.3894C41.7603 48.5944 41.7058 47.6353 41.7372 46.5539C41.7697 45.4308 41.893 44.019 42.0659 42.3172L42.5336 37.5434C42.7368 36.2172 42.8468 35.2629 42.8673 34.5558C43.0135 32.3537 43.0581 30.8147 43.0024 29.8972C42.9467 28.9797 42.8038 28.2263 42.6163 27.5964C42.5073 27.0937 42.3113 26.755 42.0306 26.4971C41.7064 26.3211 41.3797 26.2284 41.0083 26.2593C40.1833 26.3186 39.426 26.8794 38.7365 27.9418C38.0918 28.8806 37.5293 29.8217 37.0902 30.7665C36.6511 31.7112 36.1214 32.9447 35.4997 34.5086C34.6167 36.5645 34.0857 37.8396 33.9067 38.3339C33.3406 39.3999 32.7334 40.4646 32.0826 41.6114C31.2564 43.1277 30.8198 43.9893 30.7738 44.1545C30.5972 44.5656 30.1993 45.5116 29.5377 47.0327C28.876 48.5538 28.1733 50.0737 27.3447 51.6732C27.0714 52.5811 26.7992 53.4474 26.4473 54.2282C26.0953 55.0089 25.7856 55.7493 25.4373 56.4052C24.8288 57.5116 24.3426 58.6631 23.9374 59.8586C23.8479 60.1058 23.7149 60.4349 23.5794 60.8473C23.4439 61.2597 23.352 61.59 23.3037 61.8384C23.2505 62.2532 23.4852 62.6763 23.9244 63.1469C24.239 63.6556 24.6031 63.8743 24.9334 63.8422ZM117.993 51.7626C118.764 52.1596 119.706 52.3118 120.819 52.2609C122.387 52.1398 123.59 51.8417 124.346 51.3224C125.142 50.8459 125.575 50.1092 125.645 49.1121C125.71 48.2814 125.497 47.1096 125.005 45.6383C124.728 45.2556 124.533 44.8753 124.38 44.4546C124.228 44.0339 124.113 43.7391 124.034 43.612C123.835 43.398 123.642 42.9345 123.497 42.2642C123.352 41.594 123.286 41.0092 123.342 40.5113C123.4 39.9302 123.494 39.5166 123.668 39.1886C123.841 38.9023 124.225 38.4555 124.861 37.8078C125.583 37.0378 126.551 36.3166 127.725 35.6013C128.979 34.9299 129.732 34.5355 130.144 34.5058C130.515 34.475 130.679 34.5213 130.675 34.6461C130.672 34.7709 130.457 35.0561 130.075 35.4613C129.775 35.8689 129.599 36.2801 129.545 36.6948C129.496 36.9848 129.526 37.3603 129.597 37.737C129.71 38.115 129.906 38.4537 130.146 38.7104C130.385 38.9671 130.669 39.1003 130.959 39.067C131.248 39.0338 131.499 38.8746 131.634 38.5038C131.636 38.4206 131.768 38.133 131.986 37.723C132.244 37.3143 132.378 36.9851 132.467 36.7379C133.113 35.7575 133.465 34.9768 133.522 34.4372C133.579 33.8977 133.471 33.3534 133.2 32.7627C132.929 32.1721 132.609 31.8298 132.283 31.737C132.081 31.6063 131.671 31.5528 131.096 31.4945C130.521 31.4362 130.069 31.4231 129.656 31.4527C128.658 31.7984 127.572 32.3498 126.355 33.147C125.138 33.9443 124.042 34.8284 123.15 35.76C122.477 36.2817 121.924 36.8901 121.492 37.5852C121.06 38.2804 120.835 38.94 120.734 39.6031C120.667 40.4754 120.76 41.5188 121.094 42.7774C121.43 43.9943 121.93 45.1745 122.637 46.3606C122.856 47.3244 122.963 47.9103 122.958 48.0767C122.865 48.4487 122.525 48.8135 121.94 49.0879C121.355 49.404 120.773 49.5953 120.114 49.6178C119.248 49.6759 118.594 49.4904 118.154 49.0614C117.949 49.0138 117.706 48.8819 117.423 48.7071C117.14 48.5324 116.854 48.4409 116.648 48.4765C116.397 48.5941 116.269 48.7569 116.263 48.9649C116.261 49.0481 116.334 49.3416 116.523 49.9299C116.746 50.769 117.222 51.3656 117.993 51.7626ZM164.641 28.8872C164.476 28.8824 164.222 29.1248 163.922 29.5324C163.622 29.94 163.448 30.268 163.44 30.5591C163.435 30.7255 163.471 30.8931 163.588 31.1046C163.707 31.2746 163.909 31.4053 164.115 31.4113L166.038 31.8001L164.427 34.834L163.544 36.8898L162.394 39.6456C162.214 40.1816 162.027 40.9255 161.879 41.7954C161.73 42.6653 161.581 43.5352 161.517 44.3243C161.406 45.3202 161.43 45.9037 161.551 45.9905C161.591 46.0333 161.631 46.076 161.67 46.1604C161.75 46.246 161.747 46.3292 161.746 46.3708C161.854 46.9151 162.167 47.4654 162.645 48.0204C163.122 48.617 163.607 48.9225 164.14 48.9796C164.592 49.0343 165.085 49.0486 165.58 49.0214C167.478 48.8683 169.436 48.0924 171.493 46.6951C172.457 46.0986 173.09 45.5758 173.349 45.167C173.608 44.7582 173.787 44.2638 173.844 43.7243C173.694 43.2204 173.495 42.9649 173.248 42.9577C173.125 42.9541 172.998 43.0753 172.869 43.2797C172.743 43.3593 172.575 43.4794 172.323 43.6386C172.071 43.7978 171.777 43.9974 171.442 44.1958C170.938 44.5559 170.144 44.9492 169.1 45.4601C168.268 45.769 167.275 45.9483 166.161 46.0409C165.377 46.1014 164.843 46.0443 164.519 45.8684C164.195 45.6925 164.081 45.3561 164.136 44.8582C164.14 44.7334 164.232 44.403 164.331 43.8231C165.031 40.971 165.977 38.1676 167.127 35.4118C167.298 35.2086 167.645 34.5943 168.21 33.5699C168.642 32.8747 168.901 32.4659 169.028 32.3447C169.202 32.0168 169.331 31.8124 169.46 31.6496C169.588 31.4868 169.796 31.4095 170.046 31.2919C170.337 31.2171 170.586 31.141 170.834 31.1066C170.998 31.1114 171.246 31.0769 171.411 31.0817C172.525 30.9891 173.601 30.8122 174.677 30.5936C175.75 30.4999 176.453 30.3954 176.786 30.2801C177.119 30.1649 177.292 29.8785 177.347 29.3806C177.354 29.131 177.362 28.8814 177.368 28.6734C177.354 27.7156 176.791 27.2829 175.635 27.3743C175.471 27.3696 175.139 27.4432 174.683 27.5549C173.563 27.8554 172.818 28.0003 172.323 28.0276C171.91 28.0573 171.707 27.9681 171.714 27.7185C171.722 27.469 171.937 27.1422 172.322 26.6538C172.538 26.2854 172.84 25.7946 173.315 25.059C173.486 24.8143 173.659 24.5279 173.875 24.2011C174.09 23.8743 174.307 23.5059 174.567 23.0555C174.868 22.6063 175.041 22.3199 175.046 22.1536C175.049 22.0288 175.013 21.8612 174.935 21.6925C174.817 21.5225 174.738 21.3953 174.7 21.3109C174.217 20.9223 173.81 20.744 173.481 20.7344C173.151 20.7665 172.859 20.8829 172.604 21.1669C172.223 21.5305 171.926 21.8549 171.667 22.2637C171.408 22.6725 171.236 22.9173 171.15 23.0397C170.763 23.6113 170.461 24.1021 170.201 24.5524C169.941 25.0028 169.766 25.3308 169.637 25.5352C169.42 25.9036 169.245 26.2732 169.027 26.6831C168.81 27.0931 168.593 27.4615 168.462 27.7075C168.286 28.1187 168.031 28.4027 167.697 28.5595C167.198 28.7116 166.454 28.8149 165.465 28.8694C165.011 28.8979 164.763 28.9323 164.641 28.8872ZM84.2196 53.7389C84.6576 54.2511 85.0217 54.4698 85.3109 54.4366C85.5589 54.4021 85.9375 54.1217 86.3657 53.5513C86.5798 53.2661 86.7528 52.9797 86.8847 52.6921C87.0165 52.4046 87.1048 52.199 87.1484 52.117C87.1556 51.8674 87.3382 51.2483 87.6962 50.2596C88.0554 49.2292 88.3203 48.6125 88.5744 48.3701C89.2651 47.2661 89.8215 46.5329 90.205 46.0861C91.2247 44.9917 92.1985 44.0625 93.1651 43.3828C94.1317 42.7031 95.6003 41.7466 97.5286 40.5537C97.9471 40.316 98.3645 40.12 98.7807 39.9655C99.1968 39.8111 99.5706 39.697 99.9432 39.6246C100.646 39.5201 101.101 39.45 101.391 39.3752C101.641 39.2992 101.81 39.1375 101.816 38.9296C101.817 38.888 101.818 38.8464 101.78 38.762C101.741 38.6776 101.701 38.6348 101.578 38.6313C101.497 38.5873 101.415 38.5433 101.296 38.4149C101.176 38.2866 101.098 38.1178 101.065 37.8671C101.033 37.5331 100.832 37.3608 100.466 37.2252C100.14 37.0909 99.7301 37.0374 99.2752 37.1075C98.5324 37.1692 97.9094 37.3593 97.3662 37.6349C97.2404 37.7145 96.99 37.8321 96.615 37.9878C96.24 38.1434 95.9472 38.3015 95.6956 38.4607C95.1512 38.7779 94.1 39.5384 92.6241 40.7445C91.1071 41.9494 90.1733 42.9214 89.7426 43.575C89.6591 43.6142 89.6168 43.6546 89.5321 43.7354C89.4487 43.7746 89.4063 43.815 89.3241 43.8126C89.2829 43.8114 89.2841 43.7698 89.2853 43.7282C89.289 43.6034 89.5079 43.1519 89.901 42.3723C90.2941 41.5927 90.5554 41.1008 90.7284 40.8144C91.4251 39.5025 91.9488 38.4769 92.2561 37.8198C92.5633 37.1626 92.7435 36.6266 92.7532 36.2939C92.8052 35.9207 92.7301 35.6688 92.5269 35.5796C92.2474 35.2801 91.9207 35.1874 91.4671 35.2159C91.1779 35.2491 90.8876 35.3239 90.5936 35.5236C89.8231 36.5419 88.8203 38.4694 87.5055 41.2205C86.1895 44.0131 85.4372 45.823 85.2485 46.6501L84.8893 47.6804C84.3511 49.2051 83.9822 50.5681 83.7428 51.7268C83.6956 51.9336 83.6472 52.182 83.6388 52.4731C83.588 52.8047 83.6219 53.0554 83.6993 53.2242C83.8191 53.3526 83.9788 53.5237 84.2196 53.7389ZM102.201 52.6368C102.994 53.6589 104.134 54.1082 105.537 53.9824C106.198 53.9183 106.903 53.7306 107.653 53.4193C108.403 53.108 108.865 52.7884 109.038 52.502L109.451 52.4724C109.74 52.4391 110.075 52.2407 110.376 51.7915L110.335 51.7903C110.42 51.7095 110.546 51.6299 110.755 51.5111C110.964 51.3923 111.089 51.3542 111.131 51.3138C111.379 51.2794 111.843 50.9182 112.397 50.2682C112.992 49.6194 113.334 49.1714 113.425 48.8826C113.477 48.5094 113.28 48.2123 112.914 48.0352C112.55 47.8165 112.221 47.807 111.887 47.9638C111.801 48.0862 111.759 48.1266 111.675 48.1658C111.592 48.205 111.55 48.2454 111.467 48.243C111.383 48.3238 111.173 48.4426 110.879 48.6423C110.585 48.8419 110.25 49.0403 109.832 49.278L109.873 49.2791L109.664 49.398C109.285 49.6784 108.864 49.9992 108.485 50.2796C108.066 50.5589 107.647 50.7965 107.105 51.0306C106.812 51.1886 106.315 51.2991 105.656 51.3216C104.789 51.3797 104.217 51.2382 104.021 50.8995C103.748 50.392 103.645 49.6813 103.752 48.8102C103.872 47.5232 104.37 45.9557 105.247 44.1079L105.424 43.6967L105.742 44.0806C106.017 44.5465 106.46 44.8923 107.029 45.117C107.599 45.3417 108.256 45.4024 108.958 45.3395C109.742 45.2789 110.407 45.0485 110.994 44.6908C112.084 44.0147 112.972 43.2079 113.698 42.3131C114.423 41.4183 115.032 40.3119 115.563 39.0368C115.789 38.3357 115.924 37.9233 115.93 37.7154C115.938 37.4658 115.95 37.0499 115.926 36.4663C115.78 35.7961 115.548 35.2898 115.311 34.9499C115.031 34.6503 114.668 34.39 114.097 34.207C113.365 33.8943 112.67 33.7493 112.05 33.8146C111.225 33.8739 110.478 34.102 109.765 34.5393C108.553 35.1702 107.326 36.3002 106.044 37.9282C104.762 39.5562 103.68 41.3565 102.799 43.3708C101.918 45.3434 101.371 47.1593 101.201 48.7779C101.074 50.3145 101.407 51.6146 102.201 52.6368ZM107.335 40.2553C107.807 39.6029 108.571 38.7925 109.503 37.9036C110.475 37.016 111.19 36.4955 111.605 36.3827C112.02 36.2698 112.311 36.195 112.476 36.1582C112.641 36.1629 112.805 36.1677 113.009 36.2569C113.208 36.4708 113.279 36.8891 113.222 37.4287C113.148 38.5505 112.622 39.6592 111.724 40.7988C110.783 42.0204 109.818 42.6585 108.828 42.7131C108.457 42.7439 108.173 42.6108 107.975 42.3137C107.778 42.0165 107.707 41.6398 107.761 41.1835C107.722 41.0991 107.599 41.0955 107.351 41.1299C107.103 41.1644 106.854 41.2404 106.562 41.3568L107.335 40.2553ZM137.345 48.827C138.284 49.104 139.063 49.2098 139.6 49.1421C140.384 49.0816 141.258 48.7323 142.265 48.0954C143.142 47.6629 144.157 46.7349 145.307 45.3945C146.459 44.0125 147.361 42.7065 147.972 41.517C148.278 40.9014 148.627 40.2455 149.057 39.5919C149.577 38.6911 149.969 37.9532 150.192 37.3768C150.455 36.8017 150.598 36.1397 150.661 35.3922C150.711 35.1022 150.76 34.8123 150.812 34.4391C150.862 34.1492 150.827 33.94 150.748 33.8128C150.71 33.6868 150.548 33.5989 150.345 33.5097C150.143 33.379 149.899 33.2886 149.692 33.3243C149.32 33.3551 148.985 33.5536 148.604 33.9172C148.223 34.2808 147.961 34.8144 147.693 35.5143C147.649 35.6379 147.471 36.0907 147.159 36.9142C146.974 37.6165 146.75 38.2345 146.532 38.6445C145.915 40.042 145.138 41.3099 144.196 42.5315C143.255 43.7531 142.323 44.6835 141.438 45.3656C140.513 46.0464 139.764 46.3161 139.148 46.2566C138.82 46.2055 138.617 46.1163 138.456 45.9868C138.337 45.8584 138.26 45.6481 138.31 45.3581C138.361 45.0265 138.588 44.2838 139.032 43.1727C139.312 42.0152 139.761 40.7377 140.377 39.3818C140.994 37.9843 141.686 36.8387 142.37 35.9427C142.843 35.2488 143.066 34.6724 143.121 34.1745C143.177 33.6765 143.026 33.2142 142.709 32.7887C142.139 32.5641 141.771 32.4701 141.566 32.4642C141.235 32.4962 140.814 32.817 140.344 33.4278C139.707 34.0755 138.977 35.1366 138.235 36.5721C137.494 38.0077 136.875 39.4884 136.377 41.0142C135.88 42.5401 135.642 43.6572 135.662 44.4071C135.666 45.6561 135.806 46.5343 136.036 47.1238C136.309 47.6313 136.745 48.2267 137.345 48.827ZM151.864 50.705C152.109 50.7538 152.274 50.7586 152.356 50.7609C152.645 50.7277 152.897 50.5685 153.069 50.3237C153.24 50.0789 153.418 49.6261 153.517 49.0462L153.606 48.8406C153.903 47.1008 154.366 45.3242 154.915 43.4252L155.005 43.178C155.132 43.0568 155.178 42.8916 155.265 42.7276C155.272 42.478 155.359 42.314 155.445 42.1916L155.844 41.2041L156.413 40.055L156.773 38.9831L157.89 35.9765C157.933 35.8945 158.152 35.4429 158.587 34.623L158.72 34.2938L159.031 33.5119C159.514 32.4851 160.471 30.7228 161.819 28.2225C163.168 25.7223 163.99 24.3723 164.202 24.1287C164.328 24.0491 164.502 23.7211 164.81 23.064C164.896 22.9416 165.026 22.6956 165.16 22.3248L165.119 22.3236C165.332 22.08 165.503 21.8768 165.55 21.67C165.596 21.5049 165.644 21.2565 165.695 20.9249L165.749 20.4686C165.805 19.9706 165.774 19.6367 165.735 19.5523C165.656 19.4251 165.409 19.418 164.997 19.4477C164.625 19.4785 164.336 19.5118 164.127 19.6306C163.919 19.7078 163.707 19.9098 163.493 20.195L163.533 20.2378C163.364 20.3994 163.107 20.725 162.848 21.1338C162.548 21.5414 162.332 21.9098 162.199 22.2389C161.727 22.8913 161.207 23.7921 160.555 24.9804L160.291 25.5556C160.074 25.9656 159.771 26.4563 159.426 26.9875C159.211 27.3143 159.036 27.6839 158.984 28.057C158.898 28.1794 158.812 28.3018 158.726 28.4242C158.64 28.5466 158.595 28.6702 158.551 28.7938C157.739 29.811 156.604 32.0261 155.148 35.3975L154.397 37.1657C154.264 37.4949 154.041 38.0713 153.731 38.8532C153.42 39.6351 153.106 40.5003 152.791 41.4486L152.297 42.8497C152.304 42.6001 152.26 42.7237 152.164 43.1789C152.028 43.6328 151.937 43.9216 151.891 44.0868L151.797 44.5003C151.748 44.7487 151.567 45.3263 151.291 46.3174C151.015 47.3085 150.83 48.0108 150.776 48.4671C150.756 49.1326 150.783 49.633 150.978 50.0133C151.173 50.3936 151.455 50.6099 151.864 50.705ZM309.855 48.2099L309.814 48.2087L307.755 48.2322C306.972 48.2511 306.336 48.8988 306.313 49.6891C306.331 50.4805 306.93 51.1223 307.711 51.145L307.753 51.1462L309.812 51.1227C310.594 51.1037 311.231 50.4561 311.253 49.6658C311.235 48.8743 310.636 48.2325 309.855 48.2099ZM299.56 48.3276C142.885 50.8609 3.34594 78.5774 1.93777 78.8696C1.15142 79.0133 0.634905 79.7893 0.817651 80.5855C0.962883 81.2558 1.52548 81.7301 2.1836 81.7492C2.307 81.7527 2.38927 81.7551 2.51387 81.7171C3.92205 81.4249 143.172 53.7417 299.599 51.2428C300.381 51.2238 301.018 50.5762 301.001 49.7431C301.022 48.9944 300.301 48.3075 299.56 48.3276Z" fill="#1FA496"/>
</g>
<defs>
<clipPath id="clip0">
<rect width="309.45" height="81.4343" fill="white" transform="translate(3.10474 0.308105) rotate(1.66113)"/>
</clipPath>
</defs>
</svg>
